<svg xmlns="http://www.w3.org/2000/svg" enable-background="new 0 0 24 24" viewBox="0 0 24 24"><linearGradient id="a" x1="-1266.666" x2="-1265.666" y1="-1428.602" y2="-1428.602" gradientTransform="matrix(16.9075 16.9073 -15.845 18.0411 -1214.375 47190.555)" gradientUnits="userSpaceOnUse"><stop offset="0"/><stop offset="1" stop-color="#fff"/></linearGradient><path fill="url(#a)" d="M12,0.015v6.214c0.365,0.152,3.494,1.592,3.494,5.829c0,4.235-3.206,5.677-3.494,5.798v0.021c0.481,0.204,1.001,0.303,1.537,0.303c2.943,0,6.368-2.974,6.368-7.811c0-7.156-4.271-9.662-6.639-10.234C12.822,0.058,12.396,0.017,12,0.015L12,0.015z"/><linearGradient id="b" x1="-1256.895" x2="-1255.895" y1="-1435.446" y2="-1435.446" gradientTransform="matrix(-16.9075 -16.9073 13.9718 -20.4598 -1173.734 -50600.54)" gradientUnits="userSpaceOnUse"><stop offset="0"/><stop offset="1" stop-color="#fff"/></linearGradient><path fill="url(#b)" d="M12.804,0.045c0.144,0.022,0.299,0.052,0.463,0.092c2.368,0.571,6.639,3.078,6.639,10.234c0,4.837-3.426,7.811-6.368,7.811c-0.536,0-1.057-0.099-1.537-0.303V24c0.009,0,0.017,0,0.024,0C18.159,24,24,18.931,24,11.995C24,4.66,17.94,0.438,12.804,0.045L12.804,0.045z M12.268,0c-0.092,0-0.173,0.005-0.244,0.015c0.257,0,0.517,0.01,0.78,0.03C12.601,0.014,12.421,0,12.268,0L12.268,0z"/><path fill="#DEDEDE" d="M11.968 23.999c.002 0 .005.001.007.001H12C11.99 23.999 11.98 23.999 11.968 23.999L11.968 23.999zM11.963 6.214c-.21.088-3.495 1.526-3.495 5.818 0 4.344 3.288 5.747 3.516 5.839-.002-.002-.003-.004-.005-.007 0 0 .007-.003.021-.009V6.229c-.019-.008-.03-.012-.033-.014C11.965 6.215 11.964 6.215 11.963 6.214L11.963 6.214z"/><linearGradient id="c" x1="-1266.666" x2="-1265.666" y1="-1428.398" y2="-1428.398" gradientTransform="matrix(16.9075 16.9073 -15.845 18.0411 -1214.375 47190.555)" gradientUnits="userSpaceOnUse"><stop offset="0"/><stop offset="1" stop-color="#dedede"/></linearGradient><path fill="url(#c)" d="M12,17.856c-0.013,0.006-0.021,0.009-0.021,0.009c0.002,0.002,0.003,0.004,0.005,0.007c0.006,0.002,0.01,0.004,0.011,0.004c0.002,0.001,0.003,0.001,0.004,0.002V17.856L12,17.856z M11.975,0.015C5.841,0.015,0,5.084,0,12.02l0,0C0,19.729,6.696,24,11.975,24l0,0c-0.002,0-0.005-0.001-0.007-0.001c-1.062-0.035-7.801-1.04-7.801-10.314c0-4.919,3.099-7.746,6.183-7.746c0.547,0,1.094,0.089,1.623,0.271c0,0-0.004,0.001-0.01,0.004c0.001,0,0.002,0.001,0.004,0.001C11.97,6.217,11.982,6.221,12,6.229V0.015C11.992,0.015,11.984,0.015,11.975,0.015L11.975,0.015z"/><linearGradient id="d" x1="-1256.895" x2="-1255.895" y1="-1435.647" y2="-1435.647" gradientTransform="matrix(-16.9075 -16.9073 13.9718 -20.4598 -1173.734 -50600.54)" gradientUnits="userSpaceOnUse"><stop offset="0"/><stop offset="1" stop-color="#dedede"/></linearGradient><path fill="url(#d)" d="M10.35,5.939c-3.084,0-6.183,2.827-6.183,7.746c0,9.274,6.74,10.279,7.801,10.314c0.011,0,0.022,0.001,0.032,0.001v-6.122c-0.001-0.001-0.003-0.001-0.004-0.002c-0.002-0.001-0.006-0.002-0.011-0.004c-0.228-0.091-3.516-1.495-3.516-5.839c0-4.292,3.285-5.731,3.495-5.818c0.007-0.003,0.01-0.004,0.01-0.004C11.445,6.028,10.898,5.939,10.35,5.939L10.35,5.939z"/></svg>