<svg width="2292" height="4226" viewBox="0 0 2292 4226" fill="none" xmlns="http://www.w3.org/2000/svg">
<path d="M30.8833 627.922L657.397 67.1167V1316V1727.5V1766.85L695.271 1756.45L695.291 1756.44L695.312 1756.44L695.318 1756.44C695.387 1756.42 695.533 1756.38 695.754 1756.32C696.196 1756.21 696.939 1756.02 697.976 1755.78C700.05 1755.29 703.296 1754.57 707.65 1753.72C716.361 1752.02 729.497 1749.82 746.551 1748C780.663 1744.37 830.391 1742.27 891.7 1748.71C1014.1 1761.57 1183.35 1808.53 1367.4 1946.5C1481.2 2031.81 1546.58 2116.42 1583.4 2210.37C1620.49 2305 1629.7 2411.8 1626.41 2543.75C1623.34 2666.84 1604.92 2767.06 1565.98 2857.01C1527.07 2946.88 1466.88 3028.31 1377.77 3112.72C1286.19 3199.45 1198.31 3255.54 1099.28 3286.34C1000.05 3317.2 887.288 3323.4 744.89 3306.7C635.793 3293.91 566.291 3273.17 500.605 3237.87C437.159 3203.78 376.43 3155.78 286.464 3084.68C281.401 3080.68 276.245 3076.61 270.99 3072.46C188.857 3007.59 128.943 2904.67 89.1385 2808.13C49.162 2711.18 31.7179 2626.34 30.88 2601.49C29.8939 2572.25 29.8876 2076.19 30.1402 1586.07C30.2663 1341.32 30.4555 1098.43 30.6132 916.734C30.692 825.886 30.763 750.335 30.8142 697.496C30.8398 671.077 30.8605 650.335 30.8748 636.199L30.8833 627.922Z" stroke="#C8C8C8" stroke-width="60"/>
<path d="M664.883 1507.42L1291.4 946.617V2195.5V2607V2646.35L1329.27 2635.95L1329.29 2635.94L1329.31 2635.94L1329.32 2635.94C1329.39 2635.92 1329.53 2635.88 1329.75 2635.82C1330.2 2635.71 1330.94 2635.52 1331.98 2635.28C1334.05 2634.79 1337.3 2634.07 1341.65 2633.22C1350.36 2631.52 1363.5 2629.32 1380.55 2627.5C1414.66 2623.87 1464.39 2621.77 1525.7 2628.21C1648.1 2641.07 1817.35 2688.03 2001.4 2826C2115.2 2911.31 2180.58 2995.92 2217.4 3089.87C2254.49 3184.5 2263.7 3291.3 2260.41 3423.25C2257.34 3546.34 2238.92 3646.56 2199.98 3736.51C2161.07 3826.38 2100.88 3907.81 2011.77 3992.22C1920.19 4078.95 1832.31 4135.04 1733.28 4165.84C1634.05 4196.7 1521.29 4202.9 1378.89 4186.2C1269.79 4173.41 1200.29 4152.67 1134.61 4117.37C1071.16 4083.28 1010.43 4035.28 920.464 3964.18C915.401 3960.18 910.245 3956.11 904.99 3951.96C822.857 3887.09 762.943 3784.17 723.138 3687.63C683.162 3590.68 665.718 3505.84 664.88 3480.99C663.894 3451.75 663.888 2955.69 664.14 2465.57C664.266 2220.82 664.456 1977.93 664.613 1796.23C664.692 1705.39 664.763 1629.83 664.814 1577C664.84 1550.58 664.861 1529.84 664.875 1515.7L664.883 1507.42Z" stroke="#C8C8C8" stroke-width="60"/>
</svg>
